<svg id="svg" version="1.1" width="400" height="369.40509915014167" xmlns="http://www.w3.org/2000/svg" xmlns:xlink="http://www.w3.org/1999/xlink" style="display: block;"><g id="svgg"><path id="path0" d="M180.037 143.750 C 175.259 146.158,162.366 152.665,151.386 158.211 C 140.407 163.756,125.127 171.474,117.431 175.361 C 107.858 180.196,103.223 182.732,102.754 183.390 C 101.219 185.547,101.107 194.549,102.580 197.398 C 102.945 198.102,105.609 199.626,113.179 203.458 C 123.298 208.581,142.780 218.438,172.274 233.359 C 193.130 243.910,191.618 243.903,191.428 233.440 C 191.284 225.540,191.221 225.426,185.506 222.628 C 181.190 220.515,166.443 213.345,158.965 209.724 C 156.220 208.395,153.725 207.159,153.420 206.978 C 153.115 206.798,152.616 206.556,152.311 206.440 C 152.006 206.325,151.506 206.076,151.201 205.886 C 150.896 205.696,150.397 205.446,150.092 205.331 C 149.787 205.216,149.288 204.967,148.983 204.777 C 148.678 204.587,148.179 204.330,147.874 204.205 C 146.835 203.781,135.862 198.472,135.305 198.124 C 135.000 197.933,134.501 197.683,134.196 197.568 C 133.891 197.453,133.392 197.203,133.087 197.013 C 132.782 196.824,132.283 196.572,131.978 196.454 C 130.203 195.767,120.888 191.039,120.893 190.827 C 120.907 190.187,121.648 189.672,124.399 188.387 C 126.026 187.628,127.606 186.851,127.911 186.662 C 128.216 186.472,128.715 186.223,129.020 186.108 C 129.325 185.993,129.824 185.743,130.129 185.553 C 130.434 185.363,130.933 185.114,131.238 184.999 C 131.543 184.884,132.043 184.634,132.348 184.444 C 132.652 184.254,133.152 184.000,133.457 183.879 C 134.456 183.484,175.933 163.105,185.213 158.450 C 191.393 155.350,191.488 155.178,191.493 147.092 C 191.500 137.756,191.773 137.836,180.037 143.750 M214.081 140.338 C 212.644 142.164,212.653 152.140,214.094 154.980 C 214.845 156.460,213.524 155.744,232.163 164.783 C 235.314 166.311,240.721 168.937,244.177 170.618 C 250.206 173.549,255.579 176.143,268.022 182.131 C 271.174 183.648,274.002 185.046,274.307 185.238 C 274.612 185.430,275.111 185.692,275.416 185.820 C 279.546 187.552,283.910 189.922,283.829 190.388 C 283.775 190.699,280.805 192.386,277.079 194.222 C 273.419 196.025,270.176 197.648,269.871 197.829 C 269.566 198.009,269.067 198.250,268.762 198.365 C 268.457 198.480,267.957 198.726,267.652 198.912 C 267.159 199.212,266.492 199.532,263.771 200.771 C 263.364 200.956,262.782 201.261,262.477 201.448 C 262.172 201.636,251.343 207.027,238.412 213.429 C 210.388 227.304,213.150 225.093,213.158 233.641 C 213.167 243.000,213.438 243.103,224.030 237.766 C 227.994 235.768,242.717 228.340,256.747 221.259 C 270.776 214.179,286.540 206.232,291.777 203.601 C 303.520 197.700,303.839 197.312,303.441 189.392 C 303.102 182.644,309.115 186.453,258.595 160.986 C 244.566 153.914,229.380 146.259,224.849 143.975 C 215.480 139.252,215.049 139.107,214.081 140.338 " stroke="none" fill="#404040" fill-rule="evenodd"></path><path id="path1" d="M0.000 184.843 L 0.000 369.686 200.000 369.686 L 400.000 369.686 400.000 184.843 L 400.000 0.000 200.000 0.000 L 0.000 0.000 0.000 184.843 M190.731 140.346 C 191.432 141.237,191.497 141.809,191.493 147.092 C 191.488 155.178,191.393 155.350,185.213 158.450 C 175.933 163.105,134.456 183.484,133.457 183.879 C 133.152 184.000,132.652 184.254,132.348 184.444 C 132.043 184.634,131.543 184.884,131.238 184.999 C 130.933 185.114,130.434 185.363,130.129 185.553 C 129.824 185.743,129.325 185.993,129.020 186.108 C 128.715 186.223,128.216 186.472,127.911 186.662 C 127.606 186.851,126.026 187.628,124.399 188.387 C 121.648 189.672,120.907 190.187,120.893 190.827 C 120.888 191.039,130.203 195.767,131.978 196.454 C 132.283 196.572,132.782 196.824,133.087 197.013 C 133.392 197.203,133.891 197.453,134.196 197.568 C 134.501 197.683,135.000 197.933,135.305 198.124 C 135.862 198.472,146.835 203.781,147.874 204.205 C 148.179 204.330,148.678 204.587,148.983 204.777 C 149.288 204.967,149.787 205.216,150.092 205.331 C 150.397 205.446,150.896 205.696,151.201 205.886 C 151.506 206.076,152.006 206.325,152.311 206.440 C 152.616 206.556,153.115 206.798,153.420 206.978 C 153.725 207.159,156.220 208.395,158.965 209.724 C 166.443 213.345,181.190 220.515,185.506 222.628 C 191.221 225.426,191.284 225.540,191.428 233.440 C 191.618 243.903,193.130 243.910,172.274 233.359 C 142.780 218.438,123.298 208.581,113.179 203.458 C 105.609 199.626,102.945 198.102,102.580 197.398 C 101.107 194.549,101.219 185.547,102.754 183.390 C 103.223 182.732,107.858 180.196,117.431 175.361 C 125.127 171.474,140.407 163.756,151.386 158.211 C 194.194 136.589,189.465 138.736,190.731 140.346 M224.849 143.975 C 229.380 146.259,244.566 153.914,258.595 160.986 C 309.115 186.453,303.102 182.644,303.441 189.392 C 303.839 197.312,303.520 197.700,291.777 203.601 C 286.540 206.232,270.776 214.179,256.747 221.259 C 242.717 228.340,227.994 235.768,224.030 237.766 C 213.438 243.103,213.167 243.000,213.158 233.641 C 213.150 225.093,210.388 227.304,238.412 213.429 C 251.343 207.027,262.172 201.636,262.477 201.448 C 262.782 201.261,263.364 200.956,263.771 200.771 C 266.492 199.532,267.159 199.212,267.652 198.912 C 267.957 198.726,268.457 198.480,268.762 198.365 C 269.067 198.250,269.566 198.009,269.871 197.829 C 270.176 197.648,273.419 196.025,277.079 194.222 C 280.805 192.386,283.775 190.699,283.829 190.388 C 283.910 189.922,279.546 187.552,275.416 185.820 C 275.111 185.692,274.612 185.430,274.307 185.238 C 274.002 185.046,271.174 183.648,268.022 182.131 C 255.579 176.143,250.206 173.549,244.177 170.618 C 240.721 168.937,235.314 166.311,232.163 164.783 C 211.150 154.592,212.303 155.807,213.133 144.743 C 213.618 138.273,213.547 138.278,224.849 143.975 " stroke="none" fill="#7cd0c1" fill-rule="evenodd"></path></g></svg>