<svg id="svg" version="1.1" width="400" height="400" xmlns="http://www.w3.org/2000/svg" xmlns:xlink="http://www.w3.org/1999/xlink" style="display: block;"><g id="svgg"><path id="path0" d="M298.400 181.824 C 263.912 184.586,243.672 211.460,250.895 244.900 C 255.122 264.472,267.536 276.137,298.100 289.258 C 324.001 300.378,328.978 303.881,330.874 312.326 C 333.758 325.174,323.931 334.727,307.200 335.339 C 290.825 335.938,278.897 328.909,268.697 312.649 C 268.671 312.608,238.407 330.137,238.254 330.281 C 238.229 330.305,238.841 331.443,239.614 332.810 C 253.038 356.552,277.778 369.307,308.900 368.532 C 338.818 367.786,359.713 354.636,366.631 332.200 C 369.568 322.674,369.501 308.616,366.470 298.616 C 361.958 283.726,351.376 273.087,330.886 262.841 C 326.289 260.543,324.463 259.717,314.800 255.569 C 293.271 246.328,288.156 242.418,286.704 234.090 C 284.564 221.817,293.536 213.144,307.118 214.356 C 315.962 215.145,321.840 219.164,327.438 228.250 C 328.098 229.322,328.682 230.200,328.735 230.200 C 328.869 230.200,357.243 212.003,357.542 211.725 C 357.958 211.339,354.465 205.894,351.115 201.709 C 339.285 186.927,320.966 180.016,298.400 181.824 M180.395 247.750 C 180.392 285.125,180.312 312.964,180.202 314.742 C 179.372 328.226,174.432 334.044,162.970 335.035 C 151.701 336.010,145.190 331.809,137.466 318.580 L 135.878 315.860 120.889 324.943 C 112.645 329.938,105.780 334.094,105.634 334.179 C 105.170 334.449,108.433 340.317,111.247 344.273 C 124.071 362.297,144.846 370.659,170.400 368.083 C 195.956 365.507,212.030 351.098,216.488 326.769 C 217.769 319.776,217.681 325.089,217.748 251.050 L 217.809 183.800 199.105 183.800 L 180.400 183.800 180.395 247.750 " stroke="none" fill="#000000" fill-rule="evenodd"></path><path id="path1" d="M180.293 183.850 C 180.240 183.988,180.221 213.080,180.249 248.500 L 180.301 312.900 180.350 248.351 L 180.400 183.802 199.150 183.750 L 217.900 183.698 199.144 183.649 C 184.286 183.610,180.368 183.652,180.293 183.850 M290.691 219.450 L 289.900 220.300 290.750 219.509 C 291.540 218.774,291.692 218.600,291.541 218.600 C 291.508 218.600,291.125 218.982,290.691 219.450 M249.454 233.600 C 249.454 234.095,249.493 234.298,249.541 234.050 C 249.589 233.803,249.589 233.398,249.541 233.150 C 249.493 232.903,249.454 233.105,249.454 233.600 M326.400 328.300 C 325.914 328.795,325.562 329.200,325.617 329.200 C 325.672 329.200,326.114 328.795,326.600 328.300 C 327.086 327.805,327.438 327.400,327.383 327.400 C 327.328 327.400,326.886 327.805,326.400 328.300 " stroke="none" fill="#383201" fill-rule="evenodd"></path><path id="path2" d="M303.850 181.543 C 304.153 181.589,304.647 181.589,304.950 181.543 C 305.252 181.497,305.005 181.460,304.400 181.460 C 303.795 181.460,303.548 181.497,303.850 181.543 M303.750 214.345 C 304.108 214.389,304.693 214.389,305.050 214.345 C 305.407 214.300,305.115 214.264,304.400 214.264 C 303.685 214.264,303.393 214.300,303.750 214.345 M321.792 221.050 C 322.620 221.933,322.800 222.092,322.800 221.942 C 322.800 221.910,322.373 221.482,321.850 220.992 L 320.900 220.100 321.792 221.050 M354.500 278.800 C 355.264 279.570,355.934 280.200,355.989 280.200 C 356.044 280.200,355.464 279.570,354.700 278.800 C 353.936 278.030,353.266 277.400,353.211 277.400 C 353.156 277.400,353.736 278.030,354.500 278.800 M326.192 304.250 C 327.020 305.133,327.200 305.292,327.200 305.142 C 327.200 305.110,326.773 304.682,326.250 304.192 L 325.300 303.300 326.192 304.250 M368.879 316.200 C 368.879 317.795,368.911 318.447,368.949 317.650 C 368.986 316.853,368.986 315.548,368.949 314.750 C 368.911 313.953,368.879 314.605,368.879 316.200 M331.262 316.700 C 331.263 317.360,331.300 317.606,331.345 317.246 C 331.389 316.887,331.389 316.347,331.343 316.046 C 331.297 315.746,331.261 316.040,331.262 316.700 M217.646 316.800 C 217.646 317.185,217.688 317.343,217.738 317.150 C 217.788 316.957,217.788 316.643,217.738 316.450 C 217.688 316.257,217.646 316.415,217.646 316.800 M159.754 335.145 C 160.113 335.189,160.653 335.189,160.954 335.143 C 161.254 335.097,160.960 335.061,160.300 335.062 C 159.640 335.063,159.394 335.100,159.754 335.145 M304.558 335.348 C 305.250 335.387,306.330 335.387,306.958 335.348 C 307.586 335.308,307.020 335.276,305.700 335.276 C 304.380 335.277,303.866 335.309,304.558 335.348 M355.091 351.650 L 354.300 352.500 355.150 351.709 C 355.940 350.974,356.092 350.800,355.941 350.800 C 355.908 350.800,355.525 351.183,355.091 351.650 M157.250 368.538 C 157.442 368.588,157.758 368.588,157.950 368.538 C 158.143 368.488,157.985 368.446,157.600 368.446 C 157.215 368.446,157.058 368.488,157.250 368.538 M165.650 368.538 C 165.843 368.588,166.158 368.588,166.350 368.538 C 166.543 368.488,166.385 368.446,166.000 368.446 C 165.615 368.446,165.458 368.488,165.650 368.538 M312.250 368.538 C 312.443 368.588,312.757 368.588,312.950 368.538 C 313.143 368.488,312.985 368.446,312.600 368.446 C 312.215 368.446,312.058 368.488,312.250 368.538 M306.150 368.741 C 306.397 368.789,306.803 368.789,307.050 368.741 C 307.298 368.693,307.095 368.654,306.600 368.654 C 306.105 368.654,305.903 368.693,306.150 368.741 " stroke="none" fill="#6b6005" fill-rule="evenodd"></path><path id="path3" d="M301.754 181.545 C 302.113 181.589,302.653 181.589,302.954 181.543 C 303.254 181.497,302.960 181.461,302.300 181.462 C 301.640 181.463,301.394 181.500,301.754 181.545 M305.950 181.545 C 306.308 181.589,306.893 181.589,307.250 181.545 C 307.608 181.500,307.315 181.464,306.600 181.464 C 305.885 181.464,305.593 181.500,305.950 181.545 M217.899 248.700 C 217.899 284.560,217.922 299.200,217.950 281.234 C 217.978 263.267,217.978 233.927,217.950 216.034 C 217.922 198.140,217.899 212.840,217.899 248.700 M347.100 197.200 C 348.085 198.190,348.937 199.000,348.992 199.000 C 349.047 199.000,348.285 198.190,347.300 197.200 C 346.315 196.210,345.463 195.400,345.408 195.400 C 345.353 195.400,346.115 196.210,347.100 197.200 M262.895 197.050 L 261.500 198.500 262.950 197.105 C 264.297 195.810,264.491 195.600,264.345 195.600 C 264.314 195.600,263.662 196.253,262.895 197.050 M286.457 230.500 C 286.459 231.050,286.498 231.251,286.544 230.947 C 286.589 230.643,286.588 230.193,286.541 229.947 C 286.493 229.701,286.456 229.950,286.457 230.500 M291.192 242.650 C 292.020 243.533,292.200 243.692,292.200 243.542 C 292.200 243.510,291.772 243.082,291.250 242.592 L 290.300 241.700 291.192 242.650 M263.900 269.000 C 264.775 269.880,265.536 270.600,265.591 270.600 C 265.646 270.600,264.975 269.880,264.100 269.000 C 263.225 268.120,262.464 267.400,262.409 267.400 C 262.354 267.400,263.025 268.120,263.900 269.000 M276.000 322.455 C 276.000 322.485,276.697 323.183,277.550 324.005 L 279.100 325.500 277.605 323.950 C 276.216 322.510,276.000 322.309,276.000 322.455 M250.700 347.800 C 251.575 348.680,252.336 349.400,252.391 349.400 C 252.446 349.400,251.775 348.680,250.900 347.800 C 250.025 346.920,249.264 346.200,249.209 346.200 C 249.154 346.200,249.825 346.920,250.700 347.800 M117.300 351.800 C 117.953 352.460,118.532 353.000,118.587 353.000 C 118.642 353.000,118.153 352.460,117.500 351.800 C 116.847 351.140,116.268 350.600,116.213 350.600 C 116.158 350.600,116.647 351.140,117.300 351.800 M204.091 353.050 L 203.300 353.900 204.150 353.109 C 204.940 352.374,205.092 352.200,204.941 352.200 C 204.908 352.200,204.525 352.582,204.091 353.050 M202.189 354.950 L 201.500 355.700 202.250 355.011 C 202.948 354.369,203.092 354.200,202.939 354.200 C 202.906 354.200,202.568 354.538,202.189 354.950 M303.650 368.746 C 304.063 368.789,304.738 368.789,305.150 368.746 C 305.563 368.703,305.225 368.667,304.400 368.667 C 303.575 368.667,303.238 368.703,303.650 368.746 M308.050 368.746 C 308.463 368.789,309.138 368.789,309.550 368.746 C 309.963 368.703,309.625 368.667,308.800 368.667 C 307.975 368.667,307.638 368.703,308.050 368.746 " stroke="none" fill="#ccb912" fill-rule="evenodd"></path><path id="path4" d="M0.000 200.000 L 0.000 400.000 200.000 400.000 L 400.000 400.000 400.000 200.000 L 400.000 0.000 200.000 0.000 L 0.000 0.000 0.000 200.000 M309.800 181.601 C 329.627 182.787,343.688 190.402,354.297 205.700 C 355.638 207.634,358.072 211.605,357.965 211.685 C 357.333 212.156,328.755 230.400,328.650 230.400 C 328.567 230.400,328.237 229.927,327.916 229.350 C 322.475 219.568,315.632 214.930,305.963 214.470 C 292.917 213.849,284.670 222.425,286.894 234.300 C 288.430 242.506,293.136 246.070,314.633 255.310 C 328.803 261.400,334.594 264.255,341.589 268.601 C 361.233 280.804,369.622 296.021,368.934 318.200 C 367.993 348.506,345.501 367.506,309.126 368.722 C 281.842 369.634,258.149 359.175,244.065 340.000 C 241.766 336.869,238.193 330.977,238.204 330.335 C 238.207 330.157,259.149 317.849,267.594 313.060 L 268.722 312.421 270.540 315.160 C 279.383 328.486,289.834 334.706,304.117 335.144 C 320.031 335.632,330.615 328.683,331.140 317.400 C 331.551 308.569,327.244 303.132,315.000 297.025 C 310.944 295.001,308.654 293.977,295.500 288.298 C 266.226 275.661,253.663 262.847,250.209 242.100 C 244.102 205.421,269.915 179.216,309.800 181.601 M217.997 247.950 C 217.994 321.316,218.024 319.845,216.398 328.000 C 212.011 350.009,197.662 363.824,175.289 367.578 C 164.552 369.380,151.390 368.789,141.922 366.082 C 126.285 361.611,113.930 351.353,106.406 336.596 L 105.213 334.255 120.278 325.132 C 128.565 320.114,135.485 315.955,135.657 315.889 C 136.009 315.754,135.872 315.558,138.196 319.500 C 145.008 331.053,150.588 334.905,160.500 334.894 C 172.360 334.881,177.763 330.305,179.736 318.600 C 180.069 316.625,180.094 312.544,180.149 250.050 L 180.208 183.600 199.104 183.600 L 218.000 183.600 217.997 247.950 " stroke="none" fill="#f7e018" fill-rule="evenodd"></path></g></svg>